Coordinates
version=1
nRows=5
nColumns=63
inDegrees=yes

Units are S.I. units (second, meters, Newtons, ...)
If the header above contains a line with 'inDegrees', this indicates whether rotational values are in degrees (yes) or radians (no).

endheader
time	pelvis_tilt	pelvis_list	pelvis_rotation	pelvis_tx	pelvis_ty	pelvis_tz	hip_flexion_r	hip_adduction_r	hip_rotation_r	knee_angle_r	knee_angle_r_beta	ankle_angle_r	subtalar_angle_r	mtp_angle_r	hip_flexion_l	hip_adduction_l	hip_rotation_l	knee_angle_l	knee_angle_l_beta	ankle_angle_l	subtalar_angle_l	mtp_angle_l	L5_S1_Flex_Ext	L5_S1_Lat_Bending	L5_S1_axial_rotation	L4_L5_Flex_Ext	L4_L5_Lat_Bending	L4_L5_axial_rotation	L3_L4_Flex_Ext	L3_L4_Lat_Bending	L3_L4_axial_rotation	L2_L3_Flex_Ext	L2_L3_Lat_Bending	L2_L3_axial_rotation	L1_L2_Flex_Ext	L1_L2_Lat_Bending	L1_L2_axial_rotation	L1_T12_Flex_Ext	L1_T12_Lat_Bending	L1_T12_axial_rotation	Abs_r3	Abs_r2	Abs_r1	Abs_t1	Abs_t2	neck_flexion	neck_bending	neck_rotation	arm_flex_r	arm_add_r	arm_rot_r	elbow_flex_r	pro_sup_r	wrist_flex_r	wrist_dev_r	arm_flex_l	arm_add_l	arm_rot_l	elbow_flex_l	pro_sup_l	wrist_flex_l	wrist_dev_l
      3.90000000	     -1.42863192	     -2.87931171	     96.82857983	      0.20984661	      0.88830130	      0.48134625	     -8.44548903	      0.88473360	      1.34294210	      1.99350495	      0.03479323	     15.70004590	    -15.34080864	      0.00000000	     -8.09281943	     -0.11060872	     18.61930002	      0.68669477	      0.01198508	     20.05165366	    -15.16293003	      0.00000000	      0.03528927	     -0.06842374	     -0.21685892	      0.06553571	     -0.09100357	     -0.23041260	      0.05797675	     -0.16636547	     -0.23041260	      0.04033211	     -0.16636547	     -0.18975155	      0.03276962	     -0.13952969	     -0.17619787	      0.02016429	     -0.10598837	     -0.16264419	      0.25206776	     -0.77402300	     -1.20610423	      0.00000000	      0.00000000	     28.09609905	      2.94857689	      5.68820556	      3.84251535	     -9.86432905	    163.92619323	      7.77672817	      5.53992453	     -8.98056395	     -6.80782585	      3.41040517	    -11.08047132	    147.89585571	      6.94948141	      8.19780827	    -10.38708091	    -12.96020407
      3.92500000	     -1.48375891	     -2.84366348	     96.88128014	      0.20864298	      0.88860300	      0.48082981	     -8.53006395	      0.76259608	      1.37584584	      2.05150516	      0.03580552	     15.85570351	    -15.23868141	      0.00000000	     -8.20474055	     -0.01275014	     18.63825431	      0.59150201	      0.01032366	     19.91547606	    -14.97285851	      0.00000000	      0.06006126	     -0.03796598	     -0.26318135	      0.11153976	     -0.05049476	     -0.27963019	      0.09867464	     -0.09231049	     -0.27963019	      0.06864401	     -0.09231049	     -0.23028368	      0.05577288	     -0.07742023	     -0.21383485	      0.03431900	     -0.05880931	     -0.19738601	      0.42901156	     -0.42947880	     -1.46373573	      0.00000000	      0.00000000	     28.15096327	      1.68857615	      5.42921551	      3.67483402	    -10.18567181	    163.35535816	      8.07745117	      4.92300713	     -8.57013934	     -7.10406547	      3.21899044	    -10.86694773	    148.09178840	      7.10657159	      8.16867417	    -10.27984489	    -13.21369747
      3.95000000	     -1.45349587	     -2.89832641	     96.70636275	      0.20756372	      0.88894189	      0.48060691	     -8.41745813	      0.67675241	      1.24276578	      2.21234026	      0.03861262	     15.93910138	    -14.93364231	      0.00000000	     -8.20268833	      0.04416732	     18.12940831	      0.53631997	      0.00936055	     19.95673935	    -14.24707563	      0.00000000	      0.09713079	      0.00549302	     -0.16698775	      0.18038160	      0.00730572	     -0.17742448	      0.15957618	      0.01335573	     -0.17742448	      0.11101078	      0.01335573	     -0.14611428	      0.09019566	      0.01120137	     -0.13567755	      0.05550054	      0.00850869	     -0.12524081	      0.69379555	      0.06213814	     -0.92873577	      0.00000000	      0.00000000	     28.21962734	     -0.35603134	      2.79726125	      3.16781331	    -10.79758797	    158.43435616	      8.41829715	      4.77512688	     -6.89918454	     -7.65958856	      3.28102040	    -10.50187691	    150.50268507	      7.07559529	      7.30521528	    -10.09871962	    -13.25698702
      3.97500000	     -1.45315857	     -3.08728427	     96.42420123	      0.20642511	      0.88927310	      0.48101241	     -8.09173397	      0.51316429	      1.59695774	      2.42672795	      0.04235439	     15.96116411	    -15.07050666	      0.00000000	     -8.02820109	      0.18401912	     17.71675861	      0.49309029	      0.00860605	     19.49437037	    -13.90445799	      0.00000000	      0.12961068	      0.06429836	     -0.09526782	      0.24069999	      0.08551681	     -0.10122206	      0.21293738	      0.15633502	     -0.10122206	      0.14813204	      0.15633502	     -0.08335934	      0.12035648	      0.13111721	     -0.07740510	      0.07405954	      0.09959815	     -0.07145086	      0.92579612	      0.72735585	     -0.52985103	      0.00000000	      0.00000000	     28.26497170	     -2.13807644	      0.34123009	      2.83299599	    -11.31291000	    155.42936094	      8.36211542	      4.72776319	     -5.26568482	     -7.79563818	      3.25963971	    -10.11385049	    151.22693611	      7.01837101	      7.40536317	     -9.86515189	    -13.23940938
      4.00000000	     -1.36965000	     -3.24317904	     96.21741286	      0.20513799	      0.88969405	      0.48176833	     -7.75107613	      0.45219340	      1.84978824	      2.68116011	      0.04679507	     15.94579071	    -15.19163589	      0.00000000	     -7.84689934	      0.21996338	     17.93779284	      0.46815105	      0.00817078	     18.77457381	    -14.37416834	      0.00000000	      0.13191190	      0.15003410	     -0.05888099	      0.24497358	      0.19954535	     -0.06256105	      0.21671805	      0.36479291	     -0.06256105	      0.15076211	      0.36479291	     -0.05152087	      0.12249339	      0.30594954	     -0.04784081	      0.07537446	      0.23240282	     -0.04416074	      0.94223348	      1.69721576	     -0.32747841	      0.00000000	      0.00000000	     28.28333986	     -3.38957088	     -1.81143708	      2.55750772	    -11.88317685	    152.78369706	      7.99963324	      4.75141041	     -3.28350156	     -7.96531662	      3.34891687	     -9.51639180	    153.87749461	      6.67306264	      6.29573205	     -9.26442579	    -12.95153581
